<svg xmlns="http://www.w3.org/2000/svg" width="27.5" height="26.9" viewBox="0 0 27.5 26.9"><defs><filter id="a" width="200%" height="200%" x="-50%" y="-50%"><feMorphology in="SourceGraphic" operator="dilate" result="SvgjsFeMorphology1010Out"/><feOffset dx=".5" dy=".9" in="SvgjsFeMorphology1010Out" result="SvgjsFeOffset1011Out"/><feGaussianBlur in="SvgjsFeOffset1011Out" result="SvgjsFeGaussianBlur1012Out"/><feComposite in="SvgjsFeGaussianBlur1012Out" in2="SourceAlpha" operator="out" result="SvgjsFeComposite1013Out"/></filter><linearGradient id="b" x1="28" x2="28" y1="51" y2="26" gradientUnits="userSpaceOnUse"><stop offset="0" stop-color="#547394"/><stop offset="1" stop-color="#5c91c9"/></linearGradient></defs><path fill-opacity=".3" d="M35.98 31.06L40 36v-9h-4zM41 39L29.3 26h-3.35L15 39h3l9.63-11.1L38 39zm-3 3v9h-7l-.03-6.77c0-.91-1.05-2.23-1.97-2.23h-3c-.92 0-2 1.08-2 2v7h-7v-9l10.63-11.59z" filter="url(#a)" transform="translate(-14 -25)"/><path fill="#fff" d="M21.98 6.06L26 11V2h-4zM27 14L15.3 1h-3.35L1 14h3l9.63-11.1L24 14zm-3 3v9h-7l-.03-6.77c0-.91-1.05-2.23-1.97-2.23h-3c-.92 0-2 1.08-2 2v7H3v-9L13.63 5.41z"/><path fill="#fff" d="M21.98 6.06L26 11V2h-4zM27 14L15.3 1h-3.35L1 14h3l9.63-11.1L24 14zm-3 3v9h-7l-.03-6.77c0-.91-1.05-2.23-1.97-2.23h-3c-.92 0-2 1.08-2 2v7H3v-9L13.63 5.41z"/><path fill="url(#b)" d="M35.98 31.06L40 36v-9h-4zM41 39L29.3 26h-3.35L15 39h3l9.63-11.1L38 39zm-3 3v9h-7l-.03-6.77c0-.91-1.05-2.23-1.97-2.23h-3c-.92 0-2 1.08-2 2v7h-7v-9l10.63-11.59z" transform="translate(-14 -25)"/></svg>