<svg xmlns="http://www.w3.org/2000/svg" width="27.5" height="28.9" viewBox="0 0 27.5 28.9"><defs><filter id="a" width="200%" height="200%" x="-50%" y="-50%"><feMorphology in="SourceGraphic" operator="dilate" result="SvgjsFeMorphology1024Out"/><feOffset dx=".5" dy=".9" in="SvgjsFeMorphology1024Out" result="SvgjsFeOffset1025Out"/><feGaussianBlur in="SvgjsFeOffset1025Out" result="SvgjsFeGaussianBlur1026Out"/><feComposite in="SvgjsFeGaussianBlur1026Out" in2="SourceAlpha" operator="out" result="SvgjsFeComposite1027Out"/></filter><linearGradient id="b" x1="28" x2="28" y1="114.01" y2="88" gradientUnits="userSpaceOnUse"><stop offset="0" stop-color="#547394"/><stop offset="1" stop-color="#5c91c9"/></linearGradient></defs><path fill-opacity=".3" d="M41 102V92c0-2.75-1.23-4-4-4H24c-2.18 0-3.31 1.07-4 3h14c2.77 0 4 1.25 4 4v11c1.94-.69 3-1.84 3-4zm-9-9H20c-2.77 0-5 1.69-5 4.43V105c0 2.75 2.24 4.04 5 4.04l3.35 4.97 3.34-4.97h5.01c2.77 0 4.3-1.3 4.3-4.04v-8c0-2.75-1.23-4-4-4zm-12 3h12c.92 0 1 .08 1 1v7c0 .92-.08 2-1 2h-6l-2.65 3.04L21 106h-1c-.95 0-2-.08-2-1v-8c0-.92.36-1.03 2-1z" filter="url(#a)" transform="translate(-14 -87)"/><path fill="#fff" d="M27 15V5c0-2.75-1.23-4-4-4H10C7.82 1 6.69 2.07 6 4h14c2.77 0 4 1.25 4 4v11c1.94-.69 3-1.84 3-4zm-9-9H6c-2.77 0-5 1.69-5 4.43V18c0 2.75 2.24 4.04 5 4.04L9.36 27l3.34-4.97h5.01c2.77 0 4.3-1.3 4.3-4.04v-8c0-2.75-1.23-4-4-4zM6 9h12c.92 0 1 .08 1 1v7c0 .92-.08 2-1 2h-6l-2.65 3.04L7 19H6c-.95 0-2-.08-2-1v-8c0-.92.36-1.03 2-1z"/><path fill="#fff" d="M27 15V5c0-2.75-1.23-4-4-4H10C7.82 1 6.69 2.07 6 4h14c2.77 0 4 1.25 4 4v11c1.94-.69 3-1.84 3-4zm-9-9H6c-2.77 0-5 1.69-5 4.43V18c0 2.75 2.24 4.04 5 4.04L9.36 27l3.34-4.97h5.01c2.77 0 4.3-1.3 4.3-4.04v-8c0-2.75-1.23-4-4-4zM6 9h12c.92 0 1 .08 1 1v7c0 .92-.08 2-1 2h-6l-2.65 3.04L7 19H6c-.95 0-2-.08-2-1v-8c0-.92.36-1.03 2-1z"/><path fill="url(#b)" d="M41 102V92c0-2.75-1.23-4-4-4H24c-2.18 0-3.31 1.07-4 3h14c2.77 0 4 1.25 4 4v11c1.94-.69 3-1.84 3-4zm-9-9H20c-2.77 0-5 1.69-5 4.43V105c0 2.75 2.24 4.04 5 4.04l3.35 4.97 3.34-4.97h5.01c2.77 0 4.3-1.3 4.3-4.04v-8c0-2.75-1.23-4-4-4zm-12 3h12c.92 0 1 .08 1 1v7c0 .92-.08 2-1 2h-6l-2.65 3.04L21 106h-1c-.95 0-2-.08-2-1v-8c0-.92.36-1.03 2-1z" transform="translate(-14 -87)"/></svg>