<svg xmlns="http://www.w3.org/2000/svg" width="29" height="27" viewBox="0 0 29 27"><defs><linearGradient id="a" x1="27.51" x2="27.51" y1="175" y2="148" gradientUnits="userSpaceOnUse"><stop offset="0" stop-color="#547394"/><stop offset="1" stop-color="#5c91c9"/></linearGradient></defs><path fill="#fff" fill-opacity=".8" d="M23 27H6a5 5 0 0 1-5-5V5a5 5 0 0 1 5-5h18c2.77 0 4.03 2.27 4.03 5.02v16.57c0 2.75-2.26 5.41-5.03 5.41zm2-22c0-.92-1.08-2-2-2H6c-.92 0-2 1.08-2 2v17c0 .91 1.08 2 2 2h17c.92 0 2-1.09 2-2zm-4 17H8c-.92 0-1.7-.15-1.7-1.06v-.55c.63-1.4 1.29-3.14 1.68-3.96.94-1.97 2.88 2.9 4.12 2.9 2.3 0 5.17-8.86 7.57-6.11 1.18 1.34 2.4 4.84 3.34 6.95v.77c0 .91-1.09 1.06-2.01 1.06zM8.81 5.02a2.5 2.5 0 0 1 2.5 2.48 2.5 2.5 0 0 1-2.5 2.5 2.5 2.5 0 0 1-2.5-2.5 2.5 2.5 0 0 1 2.5-2.48z"/><path fill="url(#a)" d="M36 175H19a5 5 0 0 1-5-5v-17a5 5 0 0 1 5-5h18c2.77 0 4.03 2.27 4.03 5.02v16.57c0 2.75-2.26 5.41-5.03 5.41zm2-22c0-.92-1.08-2-2-2H19c-.92 0-2 1.08-2 2v17c0 .91 1.08 2 2 2h17c.92 0 2-1.09 2-2zm-4 17H21c-.92 0-1.7-.15-1.7-1.06v-.55c.63-1.4 1.29-3.14 1.68-3.96.94-1.97 2.88 2.9 4.12 2.9 2.3 0 5.17-8.86 7.57-6.11 1.18 1.34 2.4 4.84 3.34 6.95v.77c0 .91-1.09 1.06-2.01 1.06zm-12.19-16.98a2.5 2.5 0 0 1 2.5 2.48 2.5 2.5 0 0 1-2.5 2.5 2.5 2.5 0 0 1-2.5-2.5 2.5 2.5 0 0 1 2.5-2.48z" transform="translate(-13 -148)"/></svg>